<svg width="40" height="40" viewBox="0 0 40 40" fill="none" xmlns="http://www.w3.org/2000/svg">
<g clip-path="url(#clip0_67_553)">
<path d="M20.0002 3.33331L20.5402 3.33498L21.0702 3.34165L22.0968 3.36998L22.5952 3.39165L23.5602 3.44831L24.4818 3.52498C32.4568 4.29831 35.7018 7.54331 36.4752 15.5183L36.5518 16.44L36.6085 17.405C36.6168 17.5683 36.6252 17.735 36.6302 17.9033L36.6585 18.93L36.6668 20L36.6585 21.07L36.6302 22.0966L36.6085 22.595L36.5518 23.56L36.4752 24.4816C35.7018 32.4566 32.4568 35.7016 24.4818 36.475L23.5602 36.5516L22.5952 36.6083C22.4318 36.6166 22.2652 36.625 22.0968 36.63L21.0702 36.6583L20.0002 36.6666L18.9302 36.6583L17.9035 36.63L17.4052 36.6083L16.4402 36.5516L15.5185 36.475C7.5435 35.7016 4.2985 32.4566 3.52516 24.4816L3.4485 23.56L3.39183 22.595C3.38372 22.4289 3.3765 22.2628 3.37016 22.0966L3.34183 21.07C3.33683 20.72 3.3335 20.3633 3.3335 20L3.33516 19.46L3.34183 18.93L3.37016 17.9033L3.39183 17.405L3.4485 16.44L3.52516 15.5183C4.2985 7.54331 7.5435 4.29831 15.5185 3.52498L16.4402 3.44831L17.4052 3.39165C17.5685 3.38331 17.7352 3.37498 17.9035 3.36998L18.9302 3.34165C19.2802 3.33665 19.6368 3.33331 20.0002 3.33331ZM20.0002 13.3333C19.5581 13.3333 19.1342 13.5089 18.8217 13.8215C18.5091 14.134 18.3335 14.558 18.3335 15V18.3333H15.0002L14.8052 18.345C14.3833 18.3952 13.9966 18.6045 13.7239 18.9303C13.4513 19.256 13.3133 19.6736 13.3382 20.0977C13.3631 20.5217 13.549 20.9203 13.8579 21.2119C14.1668 21.5035 14.5754 21.6662 15.0002 21.6666H18.3335V25L18.3452 25.195C18.3953 25.6168 18.6047 26.0036 18.9304 26.2762C19.2562 26.5489 19.6738 26.6868 20.0978 26.6619C20.5219 26.637 20.9205 26.4512 21.2121 26.1423C21.5037 25.8334 21.6664 25.4248 21.6668 25V21.6666H25.0002L25.1952 21.655C25.617 21.6048 26.0037 21.3955 26.2764 21.0697C26.549 20.7439 26.687 20.3264 26.6621 19.9023C26.6372 19.4782 26.4513 19.0797 26.1424 18.7881C25.8335 18.4964 25.425 18.3338 25.0002 18.3333H21.6668V15L21.6552 14.805C21.6074 14.3996 21.4125 14.0258 21.1075 13.7545C20.8024 13.4832 20.4084 13.3334 20.0002 13.3333Z" fill="#00A760"/>
</g>
<defs>
<clipPath id="clip0_67_553">
<rect width="40" height="40" fill="white"/>
</clipPath>
</defs>
</svg>
