<svg width="29" height="17" viewBox="0 0 29 17" fill="none" xmlns="http://www.w3.org/2000/svg">
<g clip-path="url(#clip0_127_290)">
<path d="M11.2258 8.73607C11.2258 9.55018 11.5461 10.3309 12.1163 10.9065C12.6865 11.4821 13.4598 11.8055 14.2662 11.8055C15.0725 11.8055 15.8458 11.4821 16.416 10.9065C16.9862 10.3309 17.3065 9.55018 17.3065 8.73607C17.3065 7.92201 16.9862 7.14128 16.416 6.56564C15.8458 5.99001 15.0725 5.66663 14.2662 5.66663C13.4598 5.66663 12.6865 5.99001 12.1163 6.56564C11.5461 7.14128 11.2258 7.92201 11.2258 8.73607Z" fill="#828282" stroke="#828282" stroke-width="1.5" stroke-linecap="round" stroke-linejoin="round"/>
<path d="M0.935547 3.96668V0.944458H4.22391M0.935547 3.96668V13.0333M0.935547 3.96668H1.23036C2.88365 3.96668 4.22391 2.61358 4.22391 0.944458M4.22391 0.944458H24.7762M0.935547 13.0333V16.0556H4.22391M0.935547 13.0333H1.23036C2.88365 13.0333 4.22391 14.3865 4.22391 16.0556M24.7762 0.944458H28.0646V3.96668M24.7762 0.944458C24.7762 2.61358 26.1164 3.96668 27.7697 3.96668H28.0646M4.22391 16.0556H24.7762M24.7762 16.0556H28.0646V13.0333M24.7762 16.0556C24.7762 14.3865 26.1164 13.0333 27.7697 13.0333H28.0646M28.0646 13.0333V3.96668" stroke="#828282" stroke-width="2"/>
</g>
<defs>
<clipPath id="clip0_127_290">
<rect width="29" height="17" fill="white"/>
</clipPath>
</defs>
</svg>
