<svg width="52" height="70" viewBox="0 0 52 70" fill="none" xmlns="http://www.w3.org/2000/svg">
    <path
        d="M9.43864 6.96636C8.27024 6.96636 7.31427 7.93442 7.31427 9.11762V60.7479C7.31427 61.9311 8.27024 62.8991 9.43864 62.8991H20.0605V54.2941C20.0605 50.7311 22.9151 47.8403 26.4336 47.8403C29.9521 47.8403 32.8067 50.7311 32.8067 54.2941V62.8991H43.4286C44.597 62.8991 45.5529 61.9311 45.5529 60.7479V9.11762C45.5529 7.93442 44.597 6.96636 43.4286 6.96636H9.43864ZM0.941162 9.11762C0.941162 4.3714 4.75175 0.512573 9.43864 0.512573H43.4286C48.1155 0.512573 51.926 4.3714 51.926 9.11762V60.7479C51.926 65.4941 48.1155 69.3529 43.4286 69.3529H9.43864C4.75175 69.3529 0.941162 65.4941 0.941162 60.7479V9.11762ZM12.6252 14.4958C12.6252 13.3126 13.5812 12.3445 14.7496 12.3445H21.1227C22.2911 12.3445 23.247 13.3126 23.247 14.4958V20.9495C23.247 22.1327 22.2911 23.1008 21.1227 23.1008H14.7496C13.5812 23.1008 12.6252 22.1327 12.6252 20.9495V14.4958ZM31.7445 12.3445H38.1176C39.286 12.3445 40.242 13.3126 40.242 14.4958V20.9495C40.242 22.1327 39.286 23.1008 38.1176 23.1008H31.7445C30.5761 23.1008 29.6202 22.1327 29.6202 20.9495V14.4958C29.6202 13.3126 30.5761 12.3445 31.7445 12.3445ZM12.6252 31.7059C12.6252 30.5227 13.5812 29.5546 14.7496 29.5546H21.1227C22.2911 29.5546 23.247 30.5227 23.247 31.7059V38.1596C23.247 39.3428 22.2911 40.3109 21.1227 40.3109H14.7496C13.5812 40.3109 12.6252 39.3428 12.6252 38.1596V31.7059ZM31.7445 29.5546H38.1176C39.286 29.5546 40.242 30.5227 40.242 31.7059V38.1596C40.242 39.3428 39.286 40.3109 38.1176 40.3109H31.7445C30.5761 40.3109 29.6202 39.3428 29.6202 38.1596V31.7059C29.6202 30.5227 30.5761 29.5546 31.7445 29.5546Z"
        fill="#D6D6D6" />
</svg>