<svg width="35" height="35" viewBox="0 0 97 97" fill="none" xmlns="http://www.w3.org/2000/svg">
<path d="M48.4 96.8C75.1306 96.8 96.8 75.1306 96.8 48.4C96.8 21.6694 75.1306 0 48.4 0C21.6694 0 0 21.6694 0 48.4C0 75.1306 21.6694 96.8 48.4 96.8Z" fill="#DEDEDE"/>
<path d="M11 48.125C11 53.0003 11.9603 57.8279 13.826 62.3321C15.6917 66.8363 18.4263 70.929 21.8737 74.3763C25.321 77.8237 29.4137 80.5583 33.9179 82.424C38.4221 84.2897 43.2497 85.25 48.125 85.25C53.0003 85.25 57.8279 84.2897 62.3321 82.424C66.8363 80.5583 70.929 77.8237 74.3763 74.3763C77.8237 70.929 80.5583 66.8363 82.424 62.3321C84.2897 57.8279 85.25 53.0003 85.25 48.125C85.25 43.2497 84.2897 38.4221 82.424 33.9179C80.5583 29.4137 77.8237 25.321 74.3763 21.8737C70.929 18.4263 66.8363 15.6917 62.3321 13.826C57.8279 11.9603 53.0003 11 48.125 11C43.2497 11 38.4221 11.9603 33.9179 13.826C29.4137 15.6917 25.321 18.4263 21.8737 21.8737C18.4263 25.321 15.6917 29.4137 13.826 33.9179C11.9603 38.4221 11 43.2497 11 48.125Z" stroke="#00A760" stroke-width="1.5" stroke-linecap="round" stroke-linejoin="round"/>
<path d="M35.75 39.875C35.75 43.1571 37.0538 46.3047 39.3746 48.6254C41.6953 50.9462 44.8429 52.25 48.125 52.25C51.4071 52.25 54.5547 50.9462 56.8754 48.6254C59.1962 46.3047 60.5 43.1571 60.5 39.875C60.5 36.5929 59.1962 33.4453 56.8754 31.1246C54.5547 28.8038 51.4071 27.5 48.125 27.5C44.8429 27.5 41.6953 28.8038 39.3746 31.1246C37.0538 33.4453 35.75 36.5929 35.75 39.875Z" stroke="#00A760" stroke-width="1.5" stroke-linecap="round" stroke-linejoin="round"/>
<path d="M24.0679 76.3771C25.0888 72.9791 27.178 70.0006 30.0254 67.8837C32.8728 65.7667 36.3267 64.624 39.8749 64.625H56.3749C59.9276 64.6238 63.3858 65.7693 66.2352 67.8911C69.0847 70.013 71.1732 72.9978 72.1901 76.4019" stroke="#00A760" stroke-width="1.5" stroke-linecap="round" stroke-linejoin="round"/>
</svg>
