<svg width="23" height="23" viewBox="0 0 27 27" fill="none" xmlns="http://www.w3.org/2000/svg">
<path d="M13.4169 7.01172C17.1083 7.01172 20.1552 10.0586 20.1552 13.75C20.1552 17.5 17.1083 20.4883 13.4169 20.4883C9.66691 20.4883 6.67863 17.5 6.67863 13.75C6.67863 10.0586 9.66691 7.01172 13.4169 7.01172ZM13.4169 18.1445C15.8193 18.1445 17.7528 16.2109 17.7528 13.75C17.7528 11.3477 15.8193 9.41406 13.4169 9.41406C10.956 9.41406 9.02238 11.3477 9.02238 13.75C9.02238 16.2109 11.0146 18.1445 13.4169 18.1445ZM21.9716 6.77734C21.9716 7.65625 21.2685 8.35938 20.3896 8.35938C19.5107 8.35938 18.8075 7.65625 18.8075 6.77734C18.8075 5.89844 19.5107 5.19531 20.3896 5.19531C21.2685 5.19531 21.9716 5.89844 21.9716 6.77734ZM26.4247 8.35938C26.5419 10.5273 26.5419 17.0312 26.4247 19.1992C26.3075 21.3086 25.8388 23.125 24.3153 24.707C22.7919 26.2305 20.9169 26.6992 18.8075 26.8164C16.6396 26.9336 10.1357 26.9336 7.96769 26.8164C5.85831 26.6992 4.04191 26.2305 2.45988 24.707C0.936439 23.125 0.467689 21.3086 0.350501 19.1992C0.233314 17.0312 0.233314 10.5273 0.350501 8.35938C0.467689 6.25 0.936439 4.375 2.45988 2.85156C4.04191 1.32812 5.85831 0.859375 7.96769 0.742188C10.1357 0.625 16.6396 0.625 18.8075 0.742188C20.9169 0.859375 22.7919 1.32812 24.3153 2.85156C25.8388 4.375 26.3075 6.25 26.4247 8.35938ZM23.6122 21.4844C24.3153 19.7852 24.1396 15.6836 24.1396 13.75C24.1396 11.875 24.3153 7.77344 23.6122 6.01562C23.1435 4.90234 22.2646 3.96484 21.1513 3.55469C19.3935 2.85156 15.2919 3.02734 13.4169 3.02734C11.4833 3.02734 7.38175 2.85156 5.68253 3.55469C4.51066 4.02344 3.63175 4.90234 3.163 6.01562C2.45988 7.77344 2.63566 11.875 2.63566 13.75C2.63566 15.6836 2.45988 19.7852 3.163 21.4844C3.63175 22.6562 4.51066 23.5352 5.68253 24.0039C7.38175 24.707 11.4833 24.5312 13.4169 24.5312C15.2919 24.5312 19.3935 24.707 21.1513 24.0039C22.2646 23.5352 23.2021 22.6562 23.6122 21.4844Z" fill="#EEEEEE"/>
</svg>
