<svg width="23" height="23" viewBox="0 0 28 27" fill="none" xmlns="http://www.w3.org/2000/svg">
<path d="M6.64835 26.6492H1.19913V9.12964H6.64835V26.6492ZM3.89445 6.78589C2.19523 6.78589 0.788978 5.32104 0.788978 3.56323C0.788978 1.86401 2.19523 0.457764 3.89445 0.457764C5.65226 0.457764 7.05851 1.86401 7.05851 3.56323C7.05851 5.32104 5.65226 6.78589 3.89445 6.78589ZM26.9804 26.6492H21.5898V18.1531C21.5898 16.1023 21.5312 13.5242 18.7187 13.5242C15.9062 13.5242 15.496 15.6921 15.496 17.9773V26.6492H10.0468V9.12964H15.2616V11.532H15.3202C16.0819 10.1843 17.8398 8.71948 20.4765 8.71948C25.9843 8.71948 27.039 12.3523 27.039 17.0398V26.6492H26.9804Z" fill="#EEEEEE"/>
</svg>
