<svg width="18" height="18" viewBox="0 0 21 21" fill="none" xmlns="http://www.w3.org/2000/svg">
<g clip-path="url(#clip0_127_293)">
<path d="M7.875 9.625C7.875 10.3212 8.15156 10.9889 8.64384 11.4812C9.13613 11.9734 9.80381 12.25 10.5 12.25C11.1962 12.25 11.8639 11.9734 12.3562 11.4812C12.8484 10.9889 13.125 10.3212 13.125 9.625C13.125 8.92881 12.8484 8.26113 12.3562 7.76884C11.8639 7.27656 11.1962 7 10.5 7C9.80381 7 9.13613 7.27656 8.64384 7.76884C8.15156 8.26113 7.875 8.92881 7.875 9.625Z" stroke="#828282" stroke-width="1.5" stroke-linecap="round" stroke-linejoin="round"/>
<path d="M15.4499 14.5749L11.7373 18.2875C11.4091 18.6153 10.9643 18.7994 10.5004 18.7994C10.0366 18.7994 9.59177 18.6153 9.26363 18.2875L5.55013 14.5749C4.5712 13.5959 3.90455 12.3486 3.63448 10.9907C3.36441 9.63289 3.50306 8.22544 4.03288 6.94638C4.5627 5.66731 5.45991 4.57409 6.61105 3.80493C7.76219 3.03578 9.11555 2.62524 10.5 2.62524C11.8845 2.62524 13.2378 3.03578 14.389 3.80493C15.5401 4.57409 16.4373 5.66731 16.9671 6.94638C17.4969 8.22544 17.6356 9.63289 17.3655 10.9907C17.0955 12.3486 16.4288 13.5959 15.4499 14.5749Z" stroke="#828282" stroke-width="1.5" stroke-linecap="round" stroke-linejoin="round"/>
</g>
<defs>
<clipPath id="clip0_127_293">
<rect width="21" height="21" fill="white"/>
</clipPath>
</defs>
</svg>
