<svg xmlns="http://www.w3.org/2000/svg" width="185" height="23" viewBox="0 0 185 31" fill="none">
    <g clip-path="url(#clip0_78_128)">
        <path
            d="M0.100342 5.98268L0.106684 0.911657L23.9987 0.941537L23.9923 6.01256L15.0861 6.00142L15.056 30.0213L8.97655 30.0137L9.00659 5.99382L0.100342 5.98268ZM34.5619 30.4718C32.3176 30.469 30.3863 30.0121 28.7681 29.1009C27.1594 28.1804 25.9205 26.8815 25.0514 25.2042C24.1823 23.5175 23.7492 21.5236 23.7521 19.2225C23.7549 16.9782 24.193 15.009 25.0663 13.315C25.9396 11.6211 27.1676 10.3016 28.7502 9.35658C30.3423 8.4116 32.2084 7.94045 34.3486 7.94313C35.788 7.94493 37.1277 8.17861 38.3676 8.64418C39.617 9.10029 40.7052 9.7882 41.6321 10.7079C42.5684 11.6277 43.2961 12.7839 43.8152 14.1766C44.3343 15.5598 44.5927 17.1794 44.5904 19.0355L44.5883 20.6974L26.165 20.6744L26.1697 16.9244L38.897 16.9403C38.8981 16.0691 38.7097 15.2971 38.3317 14.6243C37.9538 13.9514 37.4289 13.4252 36.757 13.0456C36.0946 12.6565 35.3231 12.4614 34.4424 12.4603C33.5238 12.4591 32.7092 12.6712 31.9984 13.0964C31.2971 13.5122 30.7472 14.075 30.3486 14.7847C29.9499 15.485 29.7454 16.266 29.7348 17.1277L29.7304 20.693C29.729 21.7726 29.9267 22.7056 30.3235 23.4921C30.7297 24.2786 31.3018 24.8854 32.0399 25.3124C32.778 25.7395 33.6537 25.9536 34.667 25.9549C35.3393 25.9557 35.955 25.8618 36.5139 25.6731C37.0729 25.4844 37.5514 25.2009 37.9496 24.8226C38.3478 24.4444 38.6515 23.9807 38.8605 23.4317L44.4566 23.8081C44.1708 25.1524 43.587 26.3259 42.705 27.3286C41.8326 28.3218 40.7047 29.0969 39.3214 29.6539C37.9476 30.2014 36.3611 30.4741 34.5619 30.4718ZM58.3829 30.5016C56.148 30.4988 54.2263 30.0229 52.6176 29.0739C51.0184 28.1155 49.789 26.7882 48.9294 25.0921C48.0793 23.3959 47.6556 21.4446 47.6583 19.2382C47.6611 17.0033 48.0945 15.0437 48.9583 13.3591C49.8316 11.6651 51.0691 10.3457 52.6706 9.4007C54.2722 8.44626 56.1762 7.97043 58.3827 7.97319C60.2861 7.97557 61.9523 8.32329 63.3814 9.01637C64.8104 9.70944 65.9408 10.6815 66.7726 11.9325C67.6044 13.1836 68.0618 14.652 68.1449 16.3377L62.4347 16.3305C62.2751 15.2413 61.85 14.3648 61.1596 13.7011C60.4786 13.0279 59.5841 12.6906 58.4762 12.6892C57.5387 12.688 56.7192 12.9427 56.0179 13.4532C55.3259 13.9542 54.7852 14.6874 54.3958 15.6529C54.0063 16.6183 53.8107 17.7876 53.809 19.1607C53.8073 20.5527 53.9952 21.7366 54.3727 22.7125C54.7598 23.6884 55.3034 24.4324 56.0035 24.9447C56.7036 25.4569 57.5224 25.7136 58.4599 25.7148C59.1512 25.7156 59.7716 25.5744 60.3212 25.291C60.8803 25.0076 61.3401 24.5962 61.7006 24.0569C62.0706 23.5081 62.3129 22.8503 62.4275 22.0834L68.1377 22.0905C68.041 23.7571 67.5846 25.2243 66.7686 26.4922C65.9621 27.7507 64.8482 28.7341 63.4268 29.4426C62.0055 30.151 60.3242 30.504 58.3829 30.5016ZM78.0689 17.4865L78.0532 30.1001L72.002 30.0925L72.0384 1.00162L77.9191 1.00898L77.9052 12.1311L78.1609 12.1314C78.6549 10.8442 79.4516 9.83666 80.551 9.10886C81.6504 8.3716 83.0287 8.00401 84.6859 8.00608C86.2011 8.00798 87.5217 8.34107 88.6477 9.00536C89.7833 9.66018 90.6628 10.6035 91.2862 11.8354C91.9192 13.0577 92.2298 14.5212 92.2182 16.2257L92.2009 30.1178L86.1497 30.1102L86.1658 17.2977C86.1769 15.953 85.8373 14.9062 85.147 14.1572C84.4661 13.4083 83.5101 13.033 82.2791 13.0315C81.4552 13.0305 80.7258 13.2047 80.0909 13.5543C79.4655 13.9039 78.9724 14.4147 78.6117 15.0866C78.2605 15.749 78.0796 16.549 78.0689 17.4865ZM104.666 1.04243L111.555 1.05104L118.173 13.5877L118.457 13.5881L125.107 1.06799L131.996 1.07661L121.361 19.8701L121.349 30.1542L115.241 30.1466L115.253 19.8625L104.666 1.04243ZM135.319 30.1717L135.355 1.08081L141.506 1.0885L141.49 13.9152L141.873 13.9157L152.358 1.10207L159.73 1.11129L148.918 14.1234L159.822 30.2023L152.464 30.1931L144.51 18.223L141.48 21.9123L141.469 30.1794L135.319 30.1717ZM178.47 9.50122C178.357 8.35524 177.871 7.46448 177.01 6.82893C176.149 6.19339 174.98 5.87469 173.503 5.87284C172.499 5.87158 171.651 6.01257 170.959 6.2958C170.268 6.56955 169.737 6.95241 169.367 7.44437C169.007 7.93635 168.826 8.49484 168.825 9.11984C168.806 9.64064 168.914 10.0953 169.15 10.4839C169.396 10.8724 169.732 11.209 170.157 11.4937C170.583 11.7688 171.075 12.0109 171.634 12.2199C172.192 12.4195 172.789 12.5907 173.423 12.7335L176.036 13.3618C177.304 13.6475 178.469 14.0277 179.529 14.5025C180.589 14.9774 181.507 15.5609 182.282 16.2531C183.058 16.9454 183.658 17.7606 184.083 18.6986C184.518 19.6366 184.739 20.7117 184.747 21.9238C184.735 23.7041 184.279 25.2471 183.377 26.5528C182.485 27.8491 181.196 28.856 179.51 29.5736C177.833 30.2817 175.811 30.6343 173.443 30.6313C171.095 30.6284 169.05 30.266 167.308 29.5441C165.576 28.8222 164.223 27.7552 163.25 26.343C162.286 24.9213 161.781 23.1641 161.736 21.0712L167.688 21.0786C167.753 22.0541 168.031 22.8689 168.523 23.5229C169.024 24.1674 169.691 24.656 170.524 24.9884C171.367 25.3115 172.318 25.4736 173.379 25.475C174.42 25.4763 175.325 25.3259 176.092 25.0238C176.869 24.7218 177.471 24.3011 177.898 23.7619C178.325 23.2226 178.538 22.6026 178.539 21.9019C178.54 21.2485 178.347 20.699 177.959 20.2534C177.581 19.8079 177.023 19.4284 176.284 19.115C175.556 18.8016 174.661 18.5163 173.601 18.2593L170.434 17.4599C167.982 16.8603 166.047 15.9251 164.628 14.6544C163.209 13.3836 162.506 11.6735 162.518 9.52388C162.511 7.7625 162.981 6.22427 163.93 4.90916C164.888 3.59407 166.201 2.56825 167.868 1.8317C169.536 1.09515 171.43 0.728196 173.552 0.730849C175.711 0.73355 177.595 1.10523 179.204 1.84588C180.822 2.58654 182.08 3.61558 182.978 4.93299C183.876 6.2504 184.338 7.7756 184.364 9.50859L178.47 9.50122Z"
            fill="#fff" />
    </g>
    <defs>
        <clipPath id="clip0_78_128">
            <rect width="185" height="31" fill="white" />
        </clipPath>
    </defs>
</svg>