<svg width="34" height="35" viewBox="0 0 34 35" fill="none" xmlns="http://www.w3.org/2000/svg">
<rect width="34" height="35" fill="#212121"/>
<g id="Editar Perfil Usuario" clip-path="url(#clip0_0_1)">
<rect width="1920" height="1075" transform="translate(-1602 -21)" fill="white"/>
<g id="Header">
<mask id="path-1-inside-1_0_1" fill="white">
<path d="M-1602 -21H318V59H-1602V-21Z"/>
</mask>
<path d="M-1602 -21H318V59H-1602V-21Z" fill="white"/>
<path d="M318 58H-1602V60H318V58Z" fill="#919EAB" fill-opacity="0.25" mask="url(#path-1-inside-1_0_1)"/>
<g id="Nav">
<g id="Frame 9">
<g id="Frame 10">
<g id="icon">
<circle id="Ellipse 3" cx="17.3998" cy="17.1" r="17.6" fill="#EEEEEE"/>
<g id="profile" clip-path="url(#clip1_0_1)">
<path id="Vector" d="M4.25 17.5C4.25 19.1744 4.57979 20.8323 5.22054 22.3792C5.86128 23.9261 6.80044 25.3317 7.98439 26.5156C9.16834 27.6996 10.5739 28.6387 12.1208 29.2795C13.6677 29.9202 15.3256 30.25 17 30.25C18.6744 30.25 20.3323 29.9202 21.8792 29.2795C23.4261 28.6387 24.8317 27.6996 26.0156 26.5156C27.1996 25.3317 28.1387 23.9261 28.7795 22.3792C29.4202 20.8323 29.75 19.1744 29.75 17.5C29.75 15.8256 29.4202 14.1677 28.7795 12.6208C28.1387 11.0739 27.1996 9.66834 26.0156 8.48439C24.8317 7.30044 23.4261 6.36128 21.8792 5.72054C20.3323 5.07979 18.6744 4.75 17 4.75C15.3256 4.75 13.6677 5.07979 12.1208 5.72054C10.5739 6.36128 9.16834 7.30044 7.98439 8.48439C6.80044 9.66834 5.86128 11.0739 5.22054 12.6208C4.57979 14.1677 4.25 15.8256 4.25 17.5Z" stroke="#00A760" stroke-width="1.5" stroke-linecap="round" stroke-linejoin="round"/>
<path id="Vector_2" d="M12.75 14.6667C12.75 15.7939 13.1978 16.8749 13.9948 17.672C14.7918 18.469 15.8728 18.9167 17 18.9167C18.1272 18.9167 19.2082 18.469 20.0052 17.672C20.8022 16.8749 21.25 15.7939 21.25 14.6667C21.25 13.5396 20.8022 12.4586 20.0052 11.6615C19.2082 10.8645 18.1272 10.4167 17 10.4167C15.8728 10.4167 14.7918 10.8645 13.9948 11.6615C13.1978 12.4586 12.75 13.5396 12.75 14.6667Z" stroke="#00A760" stroke-width="1.5" stroke-linecap="round" stroke-linejoin="round"/>
<path id="Vector_3" d="M8.73828 27.2028C9.08892 26.0358 9.8064 25.0129 10.7843 24.2859C11.7622 23.5588 12.9484 23.1664 14.1669 23.1667H19.8336C21.0537 23.1663 22.2414 23.5597 23.22 24.2884C24.1986 25.0172 24.9159 26.0423 25.2651 27.2113" stroke="#00A760" stroke-width="1.5" stroke-linecap="round" stroke-linejoin="round"/>
</g>
</g>
</g>
</g>
</g>
</g>
</g>
<defs>
<clipPath id="clip0_0_1">
<rect width="1920" height="1075" fill="white" transform="translate(-1602 -21)"/>
</clipPath>
<clipPath id="clip1_0_1">
<rect width="34" height="34" fill="white" transform="translate(0 0.5)"/>
</clipPath>
</defs>
</svg>
